<svg xmlns="http://www.w3.org/2000/svg" xmlns:xlink="http://www.w3.org/1999/xlink" xmlns:lucid="lucid" width="1360" height="665.89"><g transform="translate(-260 -94.1060000000001)" lucid:page-tab-id="0_0"><path d="M0 0h1760v1360H0z" fill="#fff"/><path d="M460 326a6 6 0 0 1 6-6h268a6 6 0 0 1 6 6v88a6 6 0 0 1-6 6H466a6 6 0 0 1-6-6z" stroke="#3a414a" fill="#fff"/><use xlink:href="#a" transform="matrix(1,0,0,1,472,332) translate(48.00000000000004 44.22277777777778)"/><path d="M690 630c0 5.52-40.3 10-90 10s-90-4.48-90-10v-80c0-5.52 40.3-10 90-10s90 4.48 90 10z" stroke="#3a414a" fill="#fff"/><path d="M690 550c0 5.52-40.3 10-90 10s-90-4.48-90-10" stroke="#3a414a" fill="none"/><use xlink:href="#b" transform="matrix(1,0,0,1,515,565) translate(31.666666666666686 42.16027777777778)"/><path d="M280 120.1a6 6 0 0 1 6-6h148a6 6 0 0 1 6 6v100.57c-26.72-17.8-43.36-17.8-53.44-17.8-16 0-37.28 17.8-53.28 17.8-9.92 0-26.72 0-53.28-17.8z" stroke="#3a414a" fill="#fff"/><use xlink:href="#c" transform="matrix(1,0,0,1,285,119.1060000000001) translate(0 27.972777777777775)"/><use xlink:href="#d" transform="matrix(1,0,0,1,285,119.1060000000001) translate(0 42.44388888888888)"/><use xlink:href="#e" transform="matrix(1,0,0,1,285,119.1060000000001) translate(15.999999999999991 42.44388888888888)"/><use xlink:href="#f" transform="matrix(1,0,0,1,285,119.1060000000001) translate(26.66666666666665 42.44388888888888)"/><use xlink:href="#g" transform="matrix(1,0,0,1,285,119.1060000000001) translate(0 54.20388888888887)"/><use xlink:href="#e" transform="matrix(1,0,0,1,285,119.1060000000001) translate(26.66666666666665 54.20388888888887)"/><use xlink:href="#h" transform="matrix(1,0,0,1,285,119.1060000000001) translate(37.333333333333314 54.20388888888887)"/><use xlink:href="#i" transform="matrix(1,0,0,1,285,119.1060000000001) translate(0 65.96388888888886)"/><use xlink:href="#e" transform="matrix(1,0,0,1,285,119.1060000000001) translate(63.99999999999995 65.96388888888886)"/><use xlink:href="#j" transform="matrix(1,0,0,1,285,119.1060000000001) translate(74.66666666666661 65.96388888888886)"/><path d="M800 326a6 6 0 0 1 6-6h268a6 6 0 0 1 6 6v88a6 6 0 0 1-6 6H806a6 6 0 0 1-6-6z" stroke="#3a414a" fill="#fff"/><use xlink:href="#k" transform="matrix(1,0,0,1,812,332) translate(53.33333333333337 44.22277777777778)"/><path d="M1244 640c8.84 0 16 22.4 16 50s-7.16 50-16 50h-128c-8.84 0-16-22.4-16-50s7.16-50 16-50z" stroke="#3a414a" fill="#fff"/><path d="M1244 740c-8.84 0-16-22.4-16-50s7.16-50 16-50" stroke="#3a414a" fill="none"/><use xlink:href="#l" transform="matrix(1,0,0,1,1105,645) translate(32.33333333333334 51.84777777777778)"/><path d="M1124 520c19.88 0 36 17.9 36 40s-16.12 40-36 40h-108c-19.88 0-36-17.9-36-40s16.12-40 36-40z" stroke="#3a414a" fill="#fff"/><use xlink:href="#m" transform="matrix(1,0,0,1,985,525) translate(58.33833333333334 29.035277777777775)"/><use xlink:href="#n" transform="matrix(1,0,0,1,985,525) translate(53.005 52.555277777777775)"/><path d="M1372 520c26.5 0 48 17.9 48 40s-21.5 40-48 40h-144c-26.5 0-48-17.9-48-40s21.5-40 48-40z" stroke="#3a414a" fill="#fff"/><use xlink:href="#m" transform="matrix(1,0,0,1,1185,525) translate(88.33833333333335 29.035277777777775)"/><use xlink:href="#o" transform="matrix(1,0,0,1,1185,525) translate(24.338333333333388 52.555277777777775)"/><path d="M1070 601v71.54a6 6 0 0 0 6 6h23.56" stroke="#3a414a" fill="none"/><path d="M1070.5 601h-1v-.5h1zM1100.03 679.04h-.48v-1h.53z" stroke="#3a414a" stroke-width=".05" fill="#3a414a"/><path d="M1300 601v83a6 6 0 0 1-6 6h-33" stroke="#3a414a" fill="none"/><path d="M1300.5 601h-1v-.5h1zM1261 690.5h-.52l.02-.5-.02-.5h.53z" stroke="#3a414a" stroke-width=".05" fill="#3a414a"/><path d="M280 287.13a6 6 0 0 1 6-6h148a6 6 0 0 1 6 6V387.7c-26.72-17.8-43.36-17.8-53.44-17.8-16 0-37.28 17.8-53.28 17.8-9.92 0-26.72 0-53.28-17.8z" stroke="#3a414a" fill="#fff"/><use xlink:href="#p" transform="matrix(1,0,0,1,285,286.134) translate(0 32.91027777777778)"/><use xlink:href="#q" transform="matrix(1,0,0,1,285,286.134) translate(0 47.38138888888888)"/><use xlink:href="#e" transform="matrix(1,0,0,1,285,286.134) translate(53.33333333333329 47.38138888888888)"/><use xlink:href="#r" transform="matrix(1,0,0,1,285,286.134) translate(63.99999999999996 47.38138888888888)"/><use xlink:href="#s" transform="matrix(1,0,0,1,285,286.134) translate(0 59.14138888888887)"/><use xlink:href="#e" transform="matrix(1,0,0,1,285,286.134) translate(63.99999999999995 59.14138888888887)"/><use xlink:href="#t" transform="matrix(1,0,0,1,285,286.134) translate(74.66666666666661 59.14138888888887)"/><path d="M360 280.13V235.03" stroke="#3a414a" fill="none"/><path d="M360.5 280.63h-1v-.5h1z" stroke="#3a414a" stroke-width=".05" fill="#3a414a"/><path d="M360 213.02l12.73 21.52h-25.46z" stroke="#3a414a" fill="#fff"/><path d="M600 421v118" stroke="#3a414a" fill="none"/><path d="M600.5 421h-1v-.5h1zM600.5 539.5h-1v-.5h1z" stroke="#3a414a" stroke-width=".05" fill="#3a414a"/><path d="M940 421v64.38a6 6 0 0 1-6 6H650.36a6 6 0 0 0-6 6v43" stroke="#3a414a" fill="none"/><path d="M940.5 421h-1v-.5h1zM644.86 540.92l-1-.08v-.47h1z" stroke="#3a414a" stroke-width=".05" fill="#3a414a"/><path d="M1000 120.1a6 6 0 0 1 6-6h208a6 6 0 0 1 6 6V239c-36.74-20.86-59.62-20.86-73.48-20.86-22 0-51.26 20.86-73.26 20.86-13.64 0-36.74 0-73.26-20.86z" stroke="#3a414a" fill="#fff"/><use xlink:href="#u" transform="matrix(1,0,0,1,1005,119.1060000000001) translate(0 21.066527777777775)"/><use xlink:href="#d" transform="matrix(1,0,0,1,1005,119.1060000000001) translate(0 35.53763888888888)"/><use xlink:href="#e" transform="matrix(1,0,0,1,1005,119.1060000000001) translate(15.999999999999991 35.53763888888888)"/><use xlink:href="#f" transform="matrix(1,0,0,1,1005,119.1060000000001) translate(26.66666666666665 35.53763888888888)"/><use xlink:href="#v" transform="matrix(1,0,0,1,1005,119.1060000000001) translate(0 47.29763888888887)"/><use xlink:href="#e" transform="matrix(1,0,0,1,1005,119.1060000000001) translate(47.999999999999964 47.29763888888887)"/><use xlink:href="#f" transform="matrix(1,0,0,1,1005,119.1060000000001) translate(58.66666666666663 47.29763888888887)"/><use xlink:href="#w" transform="matrix(1,0,0,1,1005,119.1060000000001) translate(0 59.05763888888886)"/><use xlink:href="#e" transform="matrix(1,0,0,1,1005,119.1060000000001) translate(37.33333333333331 59.05763888888886)"/><use xlink:href="#h" transform="matrix(1,0,0,1,1005,119.1060000000001) translate(47.99999999999997 59.05763888888886)"/><use xlink:href="#x" transform="matrix(1,0,0,1,1005,119.1060000000001) translate(0 70.81763888888885)"/><use xlink:href="#e" transform="matrix(1,0,0,1,1005,119.1060000000001) translate(26.66666666666665 70.81763888888885)"/><use xlink:href="#h" transform="matrix(1,0,0,1,1005,119.1060000000001) translate(37.333333333333314 70.81763888888885)"/><use xlink:href="#y" transform="matrix(1,0,0,1,1005,119.1060000000001) translate(0 82.57763888888884)"/><use xlink:href="#e" transform="matrix(1,0,0,1,1005,119.1060000000001) translate(63.99999999999995 82.57763888888884)"/><use xlink:href="#z" transform="matrix(1,0,0,1,1005,119.1060000000001) translate(74.66666666666661 82.57763888888884)"/><use xlink:href="#A" transform="matrix(1,0,0,1,1005,119.1060000000001) translate(0 94.33763888888883)"/><use xlink:href="#e" transform="matrix(1,0,0,1,1005,119.1060000000001) translate(31.99999999999998 94.33763888888883)"/><use xlink:href="#t" transform="matrix(1,0,0,1,1005,119.1060000000001) translate(42.66666666666664 94.33763888888883)"/><path d="M600 241.5v57.38M600 241.54V240" stroke="#3a414a" stroke-width="3" fill="none"/><path d="M600 314.65l-4.63-14.27h9.26z" stroke="#3a414a" stroke-width="3" fill="#3a414a"/><path d="M852 241.5v57.38M852 241.54V240" stroke="#3a414a" stroke-width="3" fill="none"/><path d="M852 314.65l-4.63-14.27h9.26z" stroke="#3a414a" stroke-width="3" fill="#3a414a"/><path d="M1140 326a6 6 0 0 1 6-6h268a6 6 0 0 1 6 6v88a6 6 0 0 1-6 6h-268a6 6 0 0 1-6-6z" stroke="#3a414a" fill="#fff"/><g><use xlink:href="#B" transform="matrix(1,0,0,1,1152,332) translate(53.33333333333337 44.22277777777778)"/></g><path d="M1440 255a6 6 0 0 1 6-6h148a6 6 0 0 1 6 6v114c-26.72-20.04-43.36-20.04-53.44-20.04-16 0-37.28 20.04-53.28 20.04-9.92 0-26.72 0-53.28-20.04z" stroke="#3a414a" fill="#fff"/><g><use xlink:href="#C" transform="matrix(1,0,0,1,1445,254.00400000000008) translate(0 20.910277777777775)"/><use xlink:href="#D" transform="matrix(1,0,0,1,1445,254.00400000000008) translate(0 35.38138888888888)"/><use xlink:href="#e" transform="matrix(1,0,0,1,1445,254.00400000000008) translate(47.999999999999964 35.38138888888888)"/><use xlink:href="#f" transform="matrix(1,0,0,1,1445,254.00400000000008) translate(58.66666666666663 35.38138888888888)"/><use xlink:href="#E" transform="matrix(1,0,0,1,1445,254.00400000000008) translate(0 47.14138888888887)"/><use xlink:href="#e" transform="matrix(1,0,0,1,1445,254.00400000000008) translate(21.33333333333332 47.14138888888887)"/><use xlink:href="#F" transform="matrix(1,0,0,1,1445,254.00400000000008) translate(31.999999999999982 47.14138888888887)"/><use xlink:href="#G" transform="matrix(1,0,0,1,1445,254.00400000000008) translate(0 58.90138888888886)"/><use xlink:href="#e" transform="matrix(1,0,0,1,1445,254.00400000000008) translate(21.33333333333332 58.90138888888886)"/><use xlink:href="#F" transform="matrix(1,0,0,1,1445,254.00400000000008) translate(31.999999999999982 58.90138888888886)"/><use xlink:href="#H" transform="matrix(1,0,0,1,1445,254.00400000000008) translate(0 70.66138888888885)"/><use xlink:href="#e" transform="matrix(1,0,0,1,1445,254.00400000000008) translate(21.33333333333332 70.66138888888885)"/><use xlink:href="#r" transform="matrix(1,0,0,1,1445,254.00400000000008) translate(31.999999999999982 70.66138888888885)"/><use xlink:href="#I" transform="matrix(1,0,0,1,1445,254.00400000000008) translate(0 82.42138888888884)"/><use xlink:href="#e" transform="matrix(1,0,0,1,1445,254.00400000000008) translate(31.99999999999998 82.42138888888884)"/><use xlink:href="#t" transform="matrix(1,0,0,1,1445,254.00400000000008) translate(42.66666666666664 82.42138888888884)"/></g><path d="M741 370h14.5a6 6 0 0 1 6 6v68a6 6 0 0 0 6 6H1104a6 6 0 0 0 6-6V285.5a6 6 0 0 1 6-6h158a6 6 0 0 1 6 6v17.62" stroke="#3a414a" fill="none"/><path d="M741 370.5h-.5v-1h.5z" stroke="#3a414a" stroke-width=".05" fill="#3a414a"/><path d="M1280 317.88l-4.63-14.26h9.27z" stroke="#3a414a" fill="#3a414a"/><path d="M500 125.83a6 6 0 0 1 6-6h188a6 6 0 0 1 6 6V243a6 6 0 0 1-6 6H506a6 6 0 0 1-6-6z" stroke="#000" stroke-opacity="0" fill="#fff" fill-opacity="0"/><g><use xlink:href="#J" transform="matrix(1,0,0,1,505,124.82800000000015) translate(0 28.573333333333327)"/><use xlink:href="#K" transform="matrix(1,0,0,1,505,124.82800000000015) translate(31.999999999999986 28.573333333333327)"/><use xlink:href="#L" transform="matrix(1,0,0,1,505,124.82800000000015) translate(0 46.213333333333324)"/><use xlink:href="#M" transform="matrix(1,0,0,1,505,124.82800000000015) translate(39.999999999999986 46.213333333333324)"/><use xlink:href="#N" transform="matrix(1,0,0,1,505,124.82800000000015) translate(0 63.85333333333331)"/><use xlink:href="#O" transform="matrix(1,0,0,1,505,124.82800000000015) translate(31.999999999999986 63.85333333333331)"/><use xlink:href="#P" transform="matrix(1,0,0,1,505,124.82800000000015) translate(0 81.49333333333331)"/><use xlink:href="#O" transform="matrix(1,0,0,1,505,124.82800000000015) translate(31.999999999999986 81.49333333333331)"/><use xlink:href="#Q" transform="matrix(1,0,0,1,505,124.82800000000015) translate(0 99.1333333333333)"/><use xlink:href="#R" transform="matrix(1,0,0,1,505,124.82800000000015) translate(55.999999999999986 99.1333333333333)"/></g><path d="M720 132.56a6 6 0 0 1 6-6h308a6 6 0 0 1 6 6V236.4a6 6 0 0 1-6 6H726a6 6 0 0 1-6-6z" stroke="#000" stroke-opacity="0" fill="#fff" fill-opacity="0"/><g><use xlink:href="#S" transform="matrix(1,0,0,1,725,131.56000000000003) translate(0 16.88583333333333)"/><use xlink:href="#T" transform="matrix(1,0,0,1,725,131.56000000000003) translate(31.99999999999999 16.88583333333333)"/><use xlink:href="#S" transform="matrix(1,0,0,1,725,131.56000000000003) translate(0 34.525833333333324)"/><use xlink:href="#U" transform="matrix(1,0,0,1,725,131.56000000000003) translate(31.99999999999999 34.525833333333324)"/><use xlink:href="#V" transform="matrix(1,0,0,1,725,131.56000000000003) translate(0 52.16583333333332)"/><use xlink:href="#W" transform="matrix(1,0,0,1,725,131.56000000000003) translate(39.999999999999986 52.16583333333332)"/><use xlink:href="#X" transform="matrix(1,0,0,1,725,131.56000000000003) translate(0 69.80583333333331)"/><use xlink:href="#Y" transform="matrix(1,0,0,1,725,131.56000000000003) translate(31.99999999999999 69.80583333333331)"/><use xlink:href="#Z" transform="matrix(1,0,0,1,725,131.56000000000003) translate(0 87.4458333333333)"/><use xlink:href="#aa" transform="matrix(1,0,0,1,725,131.56000000000003) translate(55.999999999999986 87.4458333333333)"/><use xlink:href="#ab" transform="matrix(1,0,0,1,725,131.56000000000003) translate(0 105.08583333333328)"/><use xlink:href="#ac" transform="matrix(1,0,0,1,725,131.56000000000003) translate(55.999999999999986 105.08583333333328)"/></g><path d="M1240 245a6 6 0 0 1 6-6h208a6 6 0 0 1 6 6v30.13a6 6 0 0 1-6 6h-208a6 6 0 0 1-6-6z" stroke="#000" stroke-opacity="0" fill="#fff" fill-opacity="0"/><g><use xlink:href="#S" transform="matrix(1,0,0,1,1245,244.002) translate(0 21.82333333333333)"/><use xlink:href="#ad" transform="matrix(1,0,0,1,1245,244.002) translate(31.99999999999999 21.82333333333333)"/></g><path d="M1022.67 421v82.12" stroke="#3a414a" fill="none"/><path d="M1023.17 421h-1v-.5h1z" stroke="#3a414a" stroke-width=".05" fill="#3a414a"/><path d="M1022.67 517.88l-4.64-14.26h9.27z" stroke="#3a414a" fill="#3a414a"/><path d="M820 536a6 6 0 0 1 6-6h132.33a6 6 0 0 1 6 6v74c-24.1-13.36-39.1-13.36-48.2-13.36-14.44 0-33.63 13.36-48.07 13.36-8.95 0-24.1 0-48.06-13.36z" stroke="#3a414a" fill="#fff"/><g><use xlink:href="#ae" transform="matrix(1,0,0,1,825,535) translate(0 19.39805555555555)"/><use xlink:href="#af" transform="matrix(1,0,0,1,825,535) translate(0 37.71583333333332)"/><use xlink:href="#ag" transform="matrix(1,0,0,1,825,535) translate(71.99999999999999 37.71583333333332)"/><use xlink:href="#ah" transform="matrix(1,0,0,1,825,535) translate(87.99999999999999 37.71583333333332)"/><use xlink:href="#ai" transform="matrix(1,0,0,1,825,535) translate(0 55.355833333333315)"/><use xlink:href="#ag" transform="matrix(1,0,0,1,825,535) translate(47.999999999999986 55.355833333333315)"/><use xlink:href="#aj" transform="matrix(1,0,0,1,825,535) translate(63.99999999999998 55.355833333333315)"/></g><path d="M1112 519v-43a6 6 0 0 1 6-6h66.67a6 6 0 0 0 6-6v-27.12" stroke="#3a414a" fill="none"/><path d="M1112.5 519.5h-1v-.5h1z" stroke="#3a414a" stroke-width=".05" fill="#3a414a"/><path d="M1190.67 422.12l4.63 14.26h-9.27z" stroke="#3a414a" fill="#3a414a"/><path d="M1302.67 421v82.12" stroke="#3a414a" fill="none"/><path d="M1303.17 421h-1v-.5h1z" stroke="#3a414a" stroke-width=".05" fill="#3a414a"/><path d="M1302.67 517.88l-4.64-14.26h9.27z" stroke="#3a414a" fill="#3a414a"/><path d="M1346.67 519v-82.12" stroke="#3a414a" fill="none"/><path d="M1347.17 519.5h-1v-.5h1z" stroke="#3a414a" stroke-width=".05" fill="#3a414a"/><path d="M1346.67 422.12l4.63 14.26h-9.27z" stroke="#3a414a" fill="#3a414a"/><defs><path fill="#3a414a" d="M59 209v-725h156v50c139-144 354 3 354 208C569-57 366 89 221-43v252H59zm243-329c67 0 108-55 108-138 0-124-110-177-189-106v212c22 20 50 32 81 32" id="ak"/><path fill="#3a414a" d="M58 0v-125h112v-266H58v-125h274v130c37-94 95-138 167-138 30 0 44 3 69 15v145c-84-35-193-19-236 51v188h118V0H58" id="al"/><path fill="#3a414a" d="M300 10C147 10 31-106 31-257s116-267 269-267 269 116 269 267S453 10 300 10zm0-136c65 0 111-55 111-131s-46-131-111-131-111 55-111 131 46 131 111 131" id="am"/><path fill="#3a414a" d="M385-50C246 94 31-53 31-258c0-201 203-347 348-215v-241l162-23V0H385v-50zM190-258c0 124 110 177 189 106v-212c-22-20-50-32-81-32-67 0-108 55-108 138" id="an"/><path fill="#3a414a" d="M226 8C126 8 55-65 55-168v-348h162v301c-8 96 107 124 162 65v-366h162V0H379v-70C340-19 288 8 226 8" id="ao"/><path fill="#3a414a" d="M319 10C159 10 37-106 37-257s122-267 282-267c108 0 199 49 247 124l-122 89c-23-46-69-75-124-75-70 0-122 55-122 129s52 129 122 129c55 0 101-29 124-75l122 89C518-39 427 10 319 10" id="ap"/><path fill="#3a414a" d="M398 10c-144 0-218-65-218-192v-209H29v-125h151v-143l162-33v176h195v125H342v177c0 65 23 88 88 88 29 0 59-2 110-16v131c-40 11-98 21-142 21" id="aq"/><path fill="#3a414a" d="M116-219v-135h368v135H116" id="ar"/><path fill="#3a414a" d="M297 10C197 10 108-17 47-63l75-104c76 44 122 58 176 58 62 0 96-15 96-42 0-75-321-10-321-207 0-109 90-168 227-168 80 0 165 23 233 69l-78 99c-52-35-107-50-159-50-53 0-81 13-81 36 0 73 327 5 327 208C542-58 435 10 297 10" id="as"/><path fill="#3a414a" d="M315 10C160 10 38-107 38-257c0-151 114-267 265-267 166 2 276 124 264 308H197c16 58 65 97 126 97 47 0 85-18 111-50l104 93c-65 63-134 86-223 86zM198-308h219c-14-57-54-90-109-90s-95 33-110 90" id="at"/><path fill="#3a414a" d="M220 0L11-516h176l117 324 118-324h167L378 0H220" id="au"/><path fill="#3a414a" d="M301-594c-56 0-102-46-102-102s46-102 102-102 102 46 102 102-46 102-102 102zM437 10c-143 0-217-68-217-202v-199H42v-125h340v307c-10 95 105 97 176 65v131c-22 11-77 23-121 23" id="av"/><g id="a"><use transform="matrix(0.017777777777777774,0,0,0.017777777777777774,0,0)" xlink:href="#ak"/><use transform="matrix(0.017777777777777774,0,0,0.017777777777777774,10.666666666666664,0)" xlink:href="#al"/><use transform="matrix(0.017777777777777774,0,0,0.017777777777777774,21.33333333333333,0)" xlink:href="#am"/><use transform="matrix(0.017777777777777774,0,0,0.017777777777777774,31.999999999999993,0)" xlink:href="#an"/><use transform="matrix(0.017777777777777774,0,0,0.017777777777777774,42.66666666666666,0)" xlink:href="#ao"/><use transform="matrix(0.017777777777777774,0,0,0.017777777777777774,53.33333333333332,0)" xlink:href="#ap"/><use transform="matrix(0.017777777777777774,0,0,0.017777777777777774,63.999999999999986,0)" xlink:href="#aq"/><use transform="matrix(0.017777777777777774,0,0,0.017777777777777774,74.66666666666666,0)" xlink:href="#ar"/><use transform="matrix(0.017777777777777774,0,0,0.017777777777777774,85.33333333333331,0)" xlink:href="#as"/><use transform="matrix(0.017777777777777774,0,0,0.017777777777777774,95.99999999999997,0)" xlink:href="#at"/><use transform="matrix(0.017777777777777774,0,0,0.017777777777777774,106.66666666666663,0)" xlink:href="#al"/><use transform="matrix(0.017777777777777774,0,0,0.017777777777777774,117.33333333333327,0)" xlink:href="#au"/><use transform="matrix(0.017777777777777774,0,0,0.017777777777777774,127.99999999999994,0)" xlink:href="#av"/><use transform="matrix(0.017777777777777774,0,0,0.017777777777777774,138.6666666666666,0)" xlink:href="#ap"/><use transform="matrix(0.017777777777777774,0,0,0.017777777777777774,149.33333333333326,0)" xlink:href="#at"/></g><path fill="#3a414a" d="M284 219c-78 0-152-16-214-46l50-117c57 27 108 40 158 40 90 3 110-58 102-150-33 35-81 57-132 57C128 3 31-114 31-259c0-196 210-343 351-206v-51h159V3c0 139-91 216-257 216zm14-345c33 0 59-12 82-34v-198c-23-21-51-33-82-33-67 0-108 56-108 133 0 76 42 132 108 132" id="aw"/><path fill="#3a414a" d="M379-42C234 88 32-58 32-258c0-204 211-350 353-210v-48h156v725H379V-42zM191-258c0 123 109 177 188 107v-214c-79-70-188-16-188 107" id="ax"/><path fill="#3a414a" d="M422 10c-143 0-217-68-217-202v-410H27v-125h340v518c-10 95 105 97 176 65v131c-22 11-77 23-121 23" id="ay"/><g id="b"><use transform="matrix(0.017777777777777774,0,0,0.017777777777777774,0,0)" xlink:href="#ak"/><use transform="matrix(0.017777777777777774,0,0,0.017777777777777774,10.666666666666664,0)" xlink:href="#am"/><use transform="matrix(0.017777777777777774,0,0,0.017777777777777774,21.33333333333333,0)" xlink:href="#as"/><use transform="matrix(0.017777777777777774,0,0,0.017777777777777774,31.999999999999993,0)" xlink:href="#aq"/><use transform="matrix(0.017777777777777774,0,0,0.017777777777777774,42.66666666666666,0)" xlink:href="#aw"/><use transform="matrix(0.017777777777777774,0,0,0.017777777777777774,53.33333333333332,0)" xlink:href="#al"/><use transform="matrix(0.017777777777777774,0,0,0.017777777777777774,63.999999999999986,0)" xlink:href="#at"/><use transform="matrix(0.017777777777777774,0,0,0.017777777777777774,74.66666666666666,0)" xlink:href="#as"/><use transform="matrix(0.017777777777777774,0,0,0.017777777777777774,85.33333333333331,0)" xlink:href="#ax"/><use transform="matrix(0.017777777777777774,0,0,0.017777777777777774,95.99999999999997,0)" xlink:href="#ay"/></g><path fill="#3a414a" d="M57 0v-700h267c149 0 247 97 247 231 0 127-98 225-247 225h-95V0H57zm172-382h65c69 0 103-38 103-88s-34-88-103-88h-65v176" id="az"/><g id="c"><use transform="matrix(0.017777777777777774,0,0,0.017777777777777774,0,0)" xlink:href="#az"/><use transform="matrix(0.017777777777777774,0,0,0.017777777777777774,10.666666666666664,0)" xlink:href="#al"/><use transform="matrix(0.017777777777777774,0,0,0.017777777777777774,21.33333333333333,0)" xlink:href="#am"/><use transform="matrix(0.017777777777777774,0,0,0.017777777777777774,31.999999999999993,0)" xlink:href="#an"/><use transform="matrix(0.017777777777777774,0,0,0.017777777777777774,42.66666666666666,0)" xlink:href="#ao"/><use transform="matrix(0.017777777777777774,0,0,0.017777777777777774,53.33333333333332,0)" xlink:href="#ap"/><use transform="matrix(0.017777777777777774,0,0,0.017777777777777774,63.999999999999986,0)" xlink:href="#aq"/></g><path fill="#3a414a" d="M356-666c1 33-30 63-63 62-33 1-64-29-63-62-1-34 30-63 63-62 34-1 64 28 63 62zM529-13c-35 11-71 23-114 23-100 0-159-46-159-144v-294H75v-60h254v347C318-30 461-48 529-79v66" id="aA"/><path fill="#3a414a" d="M55-243c0-144 88-243 229-251 61 0 112 23 152 68v-296l73-15V0h-73v-65C398-17 346 7 280 7 141-1 55-101 55-243zm72-1c0 108 64 182 171 187 62 0 111-27 138-65v-242c-28-37-77-65-138-66-107 5-171 77-171 186" id="aB"/><g id="d"><use transform="matrix(0.008888888888888884,0,0,0.008888888888888884,0,0)" xlink:href="#aA"/><use transform="matrix(0.008888888888888884,0,0,0.008888888888888884,5.33333333333333,0)" xlink:href="#aB"/></g><path fill="#3a414a" d="M365-56c1 35-29 66-65 65-36 1-66-30-65-65-1-35 29-66 65-65 36-1 66 30 65 65zm0-397c1 35-29 66-65 65-36 1-66-30-65-65-1-35 29-66 65-65 36-1 66 30 65 65" id="aC"/><use transform="matrix(0.008888888888888884,0,0,0.008888888888888884,0,0)" xlink:href="#aC" id="e"/><path fill="#3a414a" d="M529-13c-35 11-71 23-114 23-100 0-159-46-159-144v-533H75v-60h254v586C318-30 461-48 529-79v66" id="aD"/><path fill="#3a414a" d="M537-243c0 148-92 253-237 253S63-95 63-243s91-253 237-253 237 105 237 253zm-402 0c0 108 59 188 165 188s165-80 165-188c0-109-60-188-165-188s-165 80-165 188" id="aE"/><path fill="#3a414a" d="M431-295c1-83-50-141-131-140-56 0-99 25-128 75V0H99v-488h73v79c37-58 89-87 155-87 110 3 177 69 177 180V0h-73v-295" id="aF"/><path fill="#3a414a" d="M509 31c9 162-150 218-305 175-33-9-63-22-91-38l31-56c51 25 91 43 156 45 91 0 136-42 136-125v-98C398-18 346 6 280 6 141-2 55-102 55-244c0-144 89-243 229-250 62 0 113 23 153 69v-63h72V31zM127-244c0 108 64 182 171 187 59 0 105-22 138-66v-241c-28-37-77-65-138-66-107 5-171 77-171 186" id="aG"/><g id="f"><use transform="matrix(0.008888888888888884,0,0,0.008888888888888884,0,0)" xlink:href="#aD"/><use transform="matrix(0.008888888888888884,0,0,0.008888888888888884,5.33333333333333,0)" xlink:href="#aE"/><use transform="matrix(0.008888888888888884,0,0,0.008888888888888884,10.66666666666666,0)" xlink:href="#aF"/><use transform="matrix(0.008888888888888884,0,0,0.008888888888888884,15.999999999999991,0)" xlink:href="#aG"/></g><path fill="#3a414a" d="M294-496c121-1 195 63 194 182V0h-72v-56C325 53 72 27 74-139c0-95 86-148 188-146 64 0 112 12 154 37 9-115-22-190-131-187-67 2-105 18-157 47l-30-55c60-33 116-51 196-53zm122 299c-72-50-270-59-272 56 0 62 59 96 127 95 66-1 108-21 145-57v-94" id="aH"/><path fill="#3a414a" d="M198-440c-32 2-48 13-63 37V0H67v-488h68v42c23-33 53-49 89-49 47 0 80 25 96 59 26-39 62-59 107-59 68-1 110 59 110 130V0h-67v-347c15-89-97-127-136-52 7 127 1 267 3 399h-67v-347c0-53-22-93-72-93" id="aI"/><path fill="#3a414a" d="M509-71c-46 48-110 81-197 81C162 10 65-94 65-244c0-147 91-252 235-252 152 0 242 106 239 268H136c11 101 73 170 179 174 62 0 113-27 143-62zm-42-211c-15-87-71-147-168-151-88 0-150 70-161 151h329" id="aJ"/><g id="g"><use transform="matrix(0.008888888888888884,0,0,0.008888888888888884,0,0)" xlink:href="#aF"/><use transform="matrix(0.008888888888888884,0,0,0.008888888888888884,5.33333333333333,0)" xlink:href="#aH"/><use transform="matrix(0.008888888888888884,0,0,0.008888888888888884,10.66666666666666,0)" xlink:href="#aI"/><use transform="matrix(0.008888888888888884,0,0,0.008888888888888884,15.999999999999991,0)" xlink:href="#aJ"/></g><path fill="#3a414a" d="M547-193C548-16 341 53 178-16 137-34 95-61 53-99l46-58C170-97 208-55 312-55c90 0 158-48 158-134 0-157-217-120-317-189-44-30-79-71-78-146-2-165 186-220 341-166 39 14 80 36 124 67l-40 60c-72-55-141-83-206-83-106 0-192 101-124 184 96 117 378 41 377 269" id="aK"/><path fill="#3a414a" d="M509-15c-39 14-80 25-129 25-102 1-168-42-169-139v-299H44v-60h167v-134l73-17v151h225v60H284v287c-7 116 153 91 225 60v66" id="aL"/><path fill="#3a414a" d="M460-432c-81 1-135 46-160 108v264h142V0H93v-60h134v-368H93v-60h207v109c26-92 142-145 252-102v67c-29-9-57-18-92-18" id="aM"/><g id="h"><use transform="matrix(0.008888888888888884,0,0,0.008888888888888884,0,0)" xlink:href="#aK"/><use transform="matrix(0.008888888888888884,0,0,0.008888888888888884,5.33333333333333,0)" xlink:href="#aL"/><use transform="matrix(0.008888888888888884,0,0,0.008888888888888884,10.66666666666666,0)" xlink:href="#aM"/><use transform="matrix(0.008888888888888884,0,0,0.008888888888888884,15.999999999999991,0)" xlink:href="#aA"/><use transform="matrix(0.008888888888888884,0,0,0.008888888888888884,21.33333333333332,0)" xlink:href="#aF"/><use transform="matrix(0.008888888888888884,0,0,0.008888888888888884,26.66666666666665,0)" xlink:href="#aG"/></g><path fill="#3a414a" d="M502-141C502 43 180 44 80-62l39-51c53 38 98 56 174 61 85 5 179-58 121-130-92-67-321 5-321-170 0-177 290-172 396-83l-36 53c-47-34-98-47-170-52-80-6-160 57-105 120 95 66 324-3 324 173" id="aN"/><path fill="#3a414a" d="M518-101C480-39 405 10 308 10 160 10 63-94 63-243c0-150 97-247 245-253 97 0 172 49 210 111l-59 37c-27-46-81-83-151-83-108 5-173 77-173 188 0 110 65 183 173 188 70 0 124-37 151-83" id="aO"/><path fill="#3a414a" d="M545-244C545-100 458 0 316 7c-63 0-114-23-153-68v270H90v-697h72v70c38-51 91-76 158-76 140 7 225 108 225 250zM163-124c28 38 77 67 139 68 107-5 171-79 171-187 0-109-64-182-171-187-61 0-107 22-139 67v239" id="aP"/><g id="i"><use transform="matrix(0.008888888888888884,0,0,0.008888888888888884,0,0)" xlink:href="#aB"/><use transform="matrix(0.008888888888888884,0,0,0.008888888888888884,5.33333333333333,0)" xlink:href="#aJ"/><use transform="matrix(0.008888888888888884,0,0,0.008888888888888884,10.66666666666666,0)" xlink:href="#aN"/><use transform="matrix(0.008888888888888884,0,0,0.008888888888888884,15.999999999999991,0)" xlink:href="#aO"/><use transform="matrix(0.008888888888888884,0,0,0.008888888888888884,21.33333333333332,0)" xlink:href="#aM"/><use transform="matrix(0.008888888888888884,0,0,0.008888888888888884,26.66666666666665,0)" xlink:href="#aA"/><use transform="matrix(0.008888888888888884,0,0,0.008888888888888884,31.99999999999998,0)" xlink:href="#aP"/><use transform="matrix(0.008888888888888884,0,0,0.008888888888888884,37.3333333333333,0)" xlink:href="#aL"/><use transform="matrix(0.008888888888888884,0,0,0.008888888888888884,42.666666666666636,0)" xlink:href="#aA"/><use transform="matrix(0.008888888888888884,0,0,0.008888888888888884,47.999999999999964,0)" xlink:href="#aE"/><use transform="matrix(0.008888888888888884,0,0,0.008888888888888884,53.33333333333329,0)" xlink:href="#aF"/></g><g id="j"><use transform="matrix(0.008888888888888884,0,0,0.008888888888888884,0,0)" xlink:href="#aK"/><use transform="matrix(0.008888888888888884,0,0,0.008888888888888884,5.33333333333333,0)" xlink:href="#aL"/><use transform="matrix(0.008888888888888884,0,0,0.008888888888888884,10.66666666666666,0)" xlink:href="#aM"/><use transform="matrix(0.008888888888888884,0,0,0.008888888888888884,15.999999999999991,0)" xlink:href="#aA"/><use transform="matrix(0.008888888888888884,0,0,0.008888888888888884,21.33333333333332,0)" xlink:href="#aF"/><use transform="matrix(0.008888888888888884,0,0,0.008888888888888884,26.66666666666665,0)" xlink:href="#aG"/></g><path fill="#3a414a" d="M113 0L15-516h127l44 291 59-291h113l62 292 42-292h123L489 0H361l-60-305L242 0H113" id="aQ"/><g id="k"><use transform="matrix(0.017777777777777774,0,0,0.017777777777777774,0,0)" xlink:href="#al"/><use transform="matrix(0.017777777777777774,0,0,0.017777777777777774,10.666666666666664,0)" xlink:href="#at"/><use transform="matrix(0.017777777777777774,0,0,0.017777777777777774,21.33333333333333,0)" xlink:href="#au"/><use transform="matrix(0.017777777777777774,0,0,0.017777777777777774,31.999999999999993,0)" xlink:href="#av"/><use transform="matrix(0.017777777777777774,0,0,0.017777777777777774,42.66666666666666,0)" xlink:href="#at"/><use transform="matrix(0.017777777777777774,0,0,0.017777777777777774,53.33333333333332,0)" xlink:href="#aQ"/><use transform="matrix(0.017777777777777774,0,0,0.017777777777777774,63.999999999999986,0)" xlink:href="#ar"/><use transform="matrix(0.017777777777777774,0,0,0.017777777777777774,74.66666666666666,0)" xlink:href="#as"/><use transform="matrix(0.017777777777777774,0,0,0.017777777777777774,85.33333333333331,0)" xlink:href="#at"/><use transform="matrix(0.017777777777777774,0,0,0.017777777777777774,95.99999999999997,0)" xlink:href="#al"/><use transform="matrix(0.017777777777777774,0,0,0.017777777777777774,106.66666666666663,0)" xlink:href="#au"/><use transform="matrix(0.017777777777777774,0,0,0.017777777777777774,117.33333333333327,0)" xlink:href="#av"/><use transform="matrix(0.017777777777777774,0,0,0.017777777777777774,127.99999999999994,0)" xlink:href="#ap"/><use transform="matrix(0.017777777777777774,0,0,0.017777777777777774,138.6666666666666,0)" xlink:href="#at"/></g><path fill="#3a414a" d="M59 0v-714l162-23v426l180-205h179L370-285 595 0H393L221-228V0H59" id="aR"/><path fill="#3a414a" d="M225 8C120 8 47-56 47-148c0-95 74-150 201-150 37 0 74 8 120 26 7-81-13-119-102-119-39 0-85 13-145 38L63-468c86-38 163-56 239-56 143 0 226 71 226 194V0H368v-49C322-9 280 8 225 8zm-29-159c1 68 131 62 172 23v-61c-56-19-174-24-172 38" id="aS"/><path fill="#3a414a" d="M190 0v-391H39v-125h151c-13-172 59-258 233-258 39 0 91 8 127 18v134c-51-14-81-16-110-16-79-4-93 42-88 122h198v125H352V0H190" id="aT"/><g id="l"><use transform="matrix(0.017777777777777774,0,0,0.017777777777777774,0,0)" xlink:href="#aR"/><use transform="matrix(0.017777777777777774,0,0,0.017777777777777774,10.666666666666664,0)" xlink:href="#aS"/><use transform="matrix(0.017777777777777774,0,0,0.017777777777777774,21.33333333333333,0)" xlink:href="#aT"/><use transform="matrix(0.017777777777777774,0,0,0.017777777777777774,31.999999999999993,0)" xlink:href="#aR"/><use transform="matrix(0.017777777777777774,0,0,0.017777777777777774,42.66666666666666,0)" xlink:href="#aS"/></g><g id="m"><use transform="matrix(0.017777777777777774,0,0,0.017777777777777774,0,0)" xlink:href="#aq"/><use transform="matrix(0.017777777777777774,0,0,0.017777777777777774,10.666666666666664,0)" xlink:href="#am"/><use transform="matrix(0.017777777777777774,0,0,0.017777777777777774,21.33333333333333,0)" xlink:href="#ak"/><use transform="matrix(0.017777777777777774,0,0,0.017777777777777774,31.999999999999993,0)" xlink:href="#av"/><use transform="matrix(0.017777777777777774,0,0,0.017777777777777774,42.66666666666666,0)" xlink:href="#ap"/></g><g id="n"><use transform="matrix(0.017777777777777774,0,0,0.017777777777777774,0,0)" xlink:href="#aN"/><use transform="matrix(0.017777777777777774,0,0,0.017777777777777774,10.666666666666664,0)" xlink:href="#aO"/><use transform="matrix(0.017777777777777774,0,0,0.017777777777777774,21.33333333333333,0)" xlink:href="#aE"/><use transform="matrix(0.017777777777777774,0,0,0.017777777777777774,31.999999999999993,0)" xlink:href="#aM"/><use transform="matrix(0.017777777777777774,0,0,0.017777777777777774,42.66666666666666,0)" xlink:href="#aJ"/><use transform="matrix(0.017777777777777774,0,0,0.017777777777777774,53.33333333333332,0)" xlink:href="#aN"/></g><path fill="#3a414a" d="M134-250v-60h332v60H134" id="aU"/><g id="o"><use transform="matrix(0.017777777777777774,0,0,0.017777777777777774,0,0)" xlink:href="#aH"/><use transform="matrix(0.017777777777777774,0,0,0.017777777777777774,10.666666666666664,0)" xlink:href="#aG"/><use transform="matrix(0.017777777777777774,0,0,0.017777777777777774,21.33333333333333,0)" xlink:href="#aG"/><use transform="matrix(0.017777777777777774,0,0,0.017777777777777774,31.999999999999993,0)" xlink:href="#aM"/><use transform="matrix(0.017777777777777774,0,0,0.017777777777777774,42.66666666666666,0)" xlink:href="#aJ"/><use transform="matrix(0.017777777777777774,0,0,0.017777777777777774,53.33333333333332,0)" xlink:href="#aG"/><use transform="matrix(0.017777777777777774,0,0,0.017777777777777774,63.999999999999986,0)" xlink:href="#aH"/><use transform="matrix(0.017777777777777774,0,0,0.017777777777777774,74.66666666666666,0)" xlink:href="#aL"/><use transform="matrix(0.017777777777777774,0,0,0.017777777777777774,85.33333333333331,0)" xlink:href="#aJ"/><use transform="matrix(0.017777777777777774,0,0,0.017777777777777774,95.99999999999997,0)" xlink:href="#aB"/><use transform="matrix(0.017777777777777774,0,0,0.017777777777777774,106.66666666666663,0)" xlink:href="#aU"/><use transform="matrix(0.017777777777777774,0,0,0.017777777777777774,117.33333333333327,0)" xlink:href="#aN"/><use transform="matrix(0.017777777777777774,0,0,0.017777777777777774,127.99999999999994,0)" xlink:href="#aO"/><use transform="matrix(0.017777777777777774,0,0,0.017777777777777774,138.6666666666666,0)" xlink:href="#aE"/><use transform="matrix(0.017777777777777774,0,0,0.017777777777777774,149.33333333333326,0)" xlink:href="#aM"/><use transform="matrix(0.017777777777777774,0,0,0.017777777777777774,159.99999999999991,0)" xlink:href="#aJ"/><use transform="matrix(0.017777777777777774,0,0,0.017777777777777774,170.66666666666657,0)" xlink:href="#aN"/></g><path fill="#3a414a" d="M52 0v-700h222c169 0 302 130 302 350S443 0 274 0H52zm172-144c116 11 179-52 179-206s-63-217-179-206v412" id="aV"/><g id="p"><use transform="matrix(0.017777777777777774,0,0,0.017777777777777774,0,0)" xlink:href="#az"/><use transform="matrix(0.017777777777777774,0,0,0.017777777777777774,10.666666666666664,0)" xlink:href="#al"/><use transform="matrix(0.017777777777777774,0,0,0.017777777777777774,21.33333333333333,0)" xlink:href="#am"/><use transform="matrix(0.017777777777777774,0,0,0.017777777777777774,31.999999999999993,0)" xlink:href="#an"/><use transform="matrix(0.017777777777777774,0,0,0.017777777777777774,42.66666666666666,0)" xlink:href="#ao"/><use transform="matrix(0.017777777777777774,0,0,0.017777777777777774,53.33333333333332,0)" xlink:href="#ap"/><use transform="matrix(0.017777777777777774,0,0,0.017777777777777774,63.999999999999986,0)" xlink:href="#aq"/><use transform="matrix(0.017777777777777774,0,0,0.017777777777777774,74.66666666666666,0)" xlink:href="#aV"/><use transform="matrix(0.017777777777777774,0,0,0.017777777777777774,85.33333333333331,0)" xlink:href="#at"/><use transform="matrix(0.017777777777777774,0,0,0.017777777777777774,95.99999999999997,0)" xlink:href="#aq"/><use transform="matrix(0.017777777777777774,0,0,0.017777777777777774,106.66666666666663,0)" xlink:href="#aS"/><use transform="matrix(0.017777777777777774,0,0,0.017777777777777774,117.33333333333327,0)" xlink:href="#av"/><use transform="matrix(0.017777777777777774,0,0,0.017777777777777774,127.99999999999994,0)" xlink:href="#ay"/><use transform="matrix(0.017777777777777774,0,0,0.017777777777777774,138.6666666666666,0)" xlink:href="#as"/></g><path fill="#3a414a" d="M16 0l235-700h97L584 0h-81l-64-195H158L95 0H16zm162-256h241L298-626" id="aW"/><path fill="#3a414a" d="M265 0L55-488h79L302-83l165-405h78L335 0h-70" id="aX"/><g id="q"><use transform="matrix(0.008888888888888884,0,0,0.008888888888888884,0,0)" xlink:href="#aM"/><use transform="matrix(0.008888888888888884,0,0,0.008888888888888884,5.33333333333333,0)" xlink:href="#aH"/><use transform="matrix(0.008888888888888884,0,0,0.008888888888888884,10.66666666666666,0)" xlink:href="#aL"/><use transform="matrix(0.008888888888888884,0,0,0.008888888888888884,15.999999999999991,0)" xlink:href="#aA"/><use transform="matrix(0.008888888888888884,0,0,0.008888888888888884,21.33333333333332,0)" xlink:href="#aF"/><use transform="matrix(0.008888888888888884,0,0,0.008888888888888884,26.66666666666665,0)" xlink:href="#aG"/><use transform="matrix(0.008888888888888884,0,0,0.008888888888888884,31.99999999999998,0)" xlink:href="#aW"/><use transform="matrix(0.008888888888888884,0,0,0.008888888888888884,37.3333333333333,0)" xlink:href="#aX"/><use transform="matrix(0.008888888888888884,0,0,0.008888888888888884,42.666666666666636,0)" xlink:href="#aG"/></g><path fill="#3a414a" d="M170-194c-1 83 49 142 130 141 55 0 98-25 128-74v-361h73V0h-73v-79C391-21 340 8 273 8 163 5 96-63 96-173v-315h74v294" id="aY"/><path fill="#3a414a" d="M545-243C545-101 460 0 320 7c-66 0-118-24-156-72V0H91v-722l73-15v311c40-45 91-68 152-68 142 7 229 107 229 251zM164-122c28 38 76 65 138 65 107-5 171-79 171-187 0-109-64-181-171-186-61 0-110 29-138 66v242" id="aZ"/><g id="r"><use transform="matrix(0.008888888888888884,0,0,0.008888888888888884,0,0)" xlink:href="#aB"/><use transform="matrix(0.008888888888888884,0,0,0.008888888888888884,5.33333333333333,0)" xlink:href="#aE"/><use transform="matrix(0.008888888888888884,0,0,0.008888888888888884,10.66666666666666,0)" xlink:href="#aY"/><use transform="matrix(0.008888888888888884,0,0,0.008888888888888884,15.999999999999991,0)" xlink:href="#aZ"/><use transform="matrix(0.008888888888888884,0,0,0.008888888888888884,21.33333333333332,0)" xlink:href="#aD"/><use transform="matrix(0.008888888888888884,0,0,0.008888888888888884,26.66666666666665,0)" xlink:href="#aJ"/></g><path fill="#3a414a" d="M558-204C526-85 444 11 306 11 125 11 43-151 41-350c-2-148 52-260 135-319 87-63 212-53 288 15 44 38 75 91 94 158l-73 23c-21-92-80-168-179-168-137 0-185 138-187 291-1 115 33 206 93 256 28 23 59 35 94 35 98-4 158-77 179-168" id="ba"/><g id="s"><use transform="matrix(0.008888888888888884,0,0,0.008888888888888884,0,0)" xlink:href="#aM"/><use transform="matrix(0.008888888888888884,0,0,0.008888888888888884,5.33333333333333,0)" xlink:href="#aH"/><use transform="matrix(0.008888888888888884,0,0,0.008888888888888884,10.66666666666666,0)" xlink:href="#aL"/><use transform="matrix(0.008888888888888884,0,0,0.008888888888888884,15.999999999999991,0)" xlink:href="#aA"/><use transform="matrix(0.008888888888888884,0,0,0.008888888888888884,21.33333333333332,0)" xlink:href="#aF"/><use transform="matrix(0.008888888888888884,0,0,0.008888888888888884,26.66666666666665,0)" xlink:href="#aG"/><use transform="matrix(0.008888888888888884,0,0,0.008888888888888884,31.99999999999998,0)" xlink:href="#ba"/><use transform="matrix(0.008888888888888884,0,0,0.008888888888888884,37.3333333333333,0)" xlink:href="#aE"/><use transform="matrix(0.008888888888888884,0,0,0.008888888888888884,42.666666666666636,0)" xlink:href="#aY"/><use transform="matrix(0.008888888888888884,0,0,0.008888888888888884,47.999999999999964,0)" xlink:href="#aF"/><use transform="matrix(0.008888888888888884,0,0,0.008888888888888884,53.33333333333329,0)" xlink:href="#aL"/></g><g id="t"><use transform="matrix(0.008888888888888884,0,0,0.008888888888888884,0,0)" xlink:href="#aA"/><use transform="matrix(0.008888888888888884,0,0,0.008888888888888884,5.33333333333333,0)" xlink:href="#aF"/><use transform="matrix(0.008888888888888884,0,0,0.008888888888888884,10.66666666666666,0)" xlink:href="#aL"/></g><path fill="#3a414a" d="M57 0v-700h265c144 0 247 91 247 222 0 89-47 159-122 195L595 0H414L288-256h-59V0H57zm172-392c86 7 166-3 166-83s-79-90-166-83v166" id="bb"/><g id="u"><use transform="matrix(0.017777777777777774,0,0,0.017777777777777774,0,0)" xlink:href="#bb"/><use transform="matrix(0.017777777777777774,0,0,0.017777777777777774,10.666666666666664,0)" xlink:href="#at"/><use transform="matrix(0.017777777777777774,0,0,0.017777777777777774,21.33333333333333,0)" xlink:href="#au"/><use transform="matrix(0.017777777777777774,0,0,0.017777777777777774,31.999999999999993,0)" xlink:href="#av"/><use transform="matrix(0.017777777777777774,0,0,0.017777777777777774,42.66666666666666,0)" xlink:href="#at"/><use transform="matrix(0.017777777777777774,0,0,0.017777777777777774,53.33333333333332,0)" xlink:href="#aQ"/></g><path fill="#3a414a" d="M448-666c1 33-30 63-63 62-33 1-64-29-63-62-1-34 30-63 63-62 34-1 64 28 63 62zM243 154c71-1 106-33 105-108v-474H97v-60h324V59c0 107-63 160-188 160-51 0-95-12-136-26v-69c52 20 82 29 146 30" id="bc"/><path fill="#3a414a" d="M80 0v-67h182v-566H80v-67h440v67H339v566h181V0H80" id="bd"/><g id="v"><use transform="matrix(0.008888888888888884,0,0,0.008888888888888884,0,0)" xlink:href="#aE"/><use transform="matrix(0.008888888888888884,0,0,0.008888888888888884,5.33333333333333,0)" xlink:href="#aZ"/><use transform="matrix(0.008888888888888884,0,0,0.008888888888888884,10.66666666666666,0)" xlink:href="#bc"/><use transform="matrix(0.008888888888888884,0,0,0.008888888888888884,15.999999999999991,0)" xlink:href="#aJ"/><use transform="matrix(0.008888888888888884,0,0,0.008888888888888884,21.33333333333332,0)" xlink:href="#aO"/><use transform="matrix(0.008888888888888884,0,0,0.008888888888888884,26.66666666666665,0)" xlink:href="#aL"/><use transform="matrix(0.008888888888888884,0,0,0.008888888888888884,31.99999999999998,0)" xlink:href="#bd"/><use transform="matrix(0.008888888888888884,0,0,0.008888888888888884,37.3333333333333,0)" xlink:href="#aB"/></g><path fill="#3a414a" d="M431-295c1-83-50-141-131-140-56 0-99 25-128 75V0H99v-722l73-15v328c37-58 89-87 155-87 110 3 177 69 177 180V0h-73v-295" id="be"/><g id="w"><use transform="matrix(0.008888888888888884,0,0,0.008888888888888884,0,0)" xlink:href="#aH"/><use transform="matrix(0.008888888888888884,0,0,0.008888888888888884,5.33333333333333,0)" xlink:href="#aY"/><use transform="matrix(0.008888888888888884,0,0,0.008888888888888884,10.66666666666666,0)" xlink:href="#aL"/><use transform="matrix(0.008888888888888884,0,0,0.008888888888888884,15.999999999999991,0)" xlink:href="#be"/><use transform="matrix(0.008888888888888884,0,0,0.008888888888888884,21.33333333333332,0)" xlink:href="#aE"/><use transform="matrix(0.008888888888888884,0,0,0.008888888888888884,26.66666666666665,0)" xlink:href="#aM"/></g><path fill="#3a414a" d="M58 0l197-251L67-488h87l147 187 149-187h83L344-253 542 0h-87L297-201 141 0H58" id="bf"/><g id="x"><use transform="matrix(0.008888888888888884,0,0,0.008888888888888884,0,0)" xlink:href="#aL"/><use transform="matrix(0.008888888888888884,0,0,0.008888888888888884,5.33333333333333,0)" xlink:href="#aJ"/><use transform="matrix(0.008888888888888884,0,0,0.008888888888888884,10.66666666666666,0)" xlink:href="#bf"/><use transform="matrix(0.008888888888888884,0,0,0.008888888888888884,15.999999999999991,0)" xlink:href="#aL"/></g><path fill="#3a414a" d="M541-251C538-92 457 11 300 11S59-92 59-251v-449h77v449c-2 109 60 192 164 192 104 1 164-83 164-192v-449h77v449" id="bg"/><g id="y"><use transform="matrix(0.008888888888888884,0,0,0.008888888888888884,0,0)" xlink:href="#aD"/><use transform="matrix(0.008888888888888884,0,0,0.008888888888888884,5.33333333333333,0)" xlink:href="#aH"/><use transform="matrix(0.008888888888888884,0,0,0.008888888888888884,10.66666666666666,0)" xlink:href="#aN"/><use transform="matrix(0.008888888888888884,0,0,0.008888888888888884,15.999999999999991,0)" xlink:href="#aL"/><use transform="matrix(0.008888888888888884,0,0,0.008888888888888884,21.33333333333332,0)" xlink:href="#bg"/><use transform="matrix(0.008888888888888884,0,0,0.008888888888888884,26.66666666666665,0)" xlink:href="#aP"/><use transform="matrix(0.008888888888888884,0,0,0.008888888888888884,31.99999999999998,0)" xlink:href="#aB"/><use transform="matrix(0.008888888888888884,0,0,0.008888888888888884,37.3333333333333,0)" xlink:href="#aH"/><use transform="matrix(0.008888888888888884,0,0,0.008888888888888884,42.666666666666636,0)" xlink:href="#aL"/><use transform="matrix(0.008888888888888884,0,0,0.008888888888888884,47.999999999999964,0)" xlink:href="#aJ"/><use transform="matrix(0.008888888888888884,0,0,0.008888888888888884,53.33333333333329,0)" xlink:href="#aB"/></g><path fill="#3a414a" d="M558-350C558-155 468 0 280 0H87v-700h193c187 10 278 154 278 350zm-78 0c0-156-63-275-210-283H164v566h106c147-8 210-127 210-283" id="bh"/><g id="z"><use transform="matrix(0.008888888888888884,0,0,0.008888888888888884,0,0)" xlink:href="#bh"/><use transform="matrix(0.008888888888888884,0,0,0.008888888888888884,5.33333333333333,0)" xlink:href="#aH"/><use transform="matrix(0.008888888888888884,0,0,0.008888888888888884,10.66666666666666,0)" xlink:href="#aL"/><use transform="matrix(0.008888888888888884,0,0,0.008888888888888884,15.999999999999991,0)" xlink:href="#aJ"/></g><g id="A"><use transform="matrix(0.008888888888888884,0,0,0.008888888888888884,0,0)" xlink:href="#aN"/><use transform="matrix(0.008888888888888884,0,0,0.008888888888888884,5.33333333333333,0)" xlink:href="#aO"/><use transform="matrix(0.008888888888888884,0,0,0.008888888888888884,10.66666666666666,0)" xlink:href="#aE"/><use transform="matrix(0.008888888888888884,0,0,0.008888888888888884,15.999999999999991,0)" xlink:href="#aM"/><use transform="matrix(0.008888888888888884,0,0,0.008888888888888884,21.33333333333332,0)" xlink:href="#aJ"/></g><path fill="#3a414a" d="M59 0v-516h162v70c39-51 91-78 153-78 100 0 171 73 171 176V0H383v-301c8-96-107-124-162-65V0H59" id="bi"/><g id="B"><use transform="matrix(0.017777777777777774,0,0,0.017777777777777774,0,0)" xlink:href="#al"/><use transform="matrix(0.017777777777777774,0,0,0.017777777777777774,10.666666666666664,0)" xlink:href="#aS"/><use transform="matrix(0.017777777777777774,0,0,0.017777777777777774,21.33333333333333,0)" xlink:href="#aq"/><use transform="matrix(0.017777777777777774,0,0,0.017777777777777774,31.999999999999993,0)" xlink:href="#av"/><use transform="matrix(0.017777777777777774,0,0,0.017777777777777774,42.66666666666666,0)" xlink:href="#bi"/><use transform="matrix(0.017777777777777774,0,0,0.017777777777777774,53.33333333333332,0)" xlink:href="#aw"/><use transform="matrix(0.017777777777777774,0,0,0.017777777777777774,63.999999999999986,0)" xlink:href="#ar"/><use transform="matrix(0.017777777777777774,0,0,0.017777777777777774,74.66666666666666,0)" xlink:href="#as"/><use transform="matrix(0.017777777777777774,0,0,0.017777777777777774,85.33333333333331,0)" xlink:href="#at"/><use transform="matrix(0.017777777777777774,0,0,0.017777777777777774,95.99999999999997,0)" xlink:href="#al"/><use transform="matrix(0.017777777777777774,0,0,0.017777777777777774,106.66666666666663,0)" xlink:href="#au"/><use transform="matrix(0.017777777777777774,0,0,0.017777777777777774,117.33333333333327,0)" xlink:href="#av"/><use transform="matrix(0.017777777777777774,0,0,0.017777777777777774,127.99999999999994,0)" xlink:href="#ap"/><use transform="matrix(0.017777777777777774,0,0,0.017777777777777774,138.6666666666666,0)" xlink:href="#at"/></g><path fill="#3a414a" d="M300 11C142 11 18-118 18-350s124-361 282-361 282 129 282 361S458 11 300 11zm0-153c62 0 109-64 109-208s-47-208-109-208-109 64-109 208 47 208 109 208" id="bj"/><path fill="#3a414a" d="M59-1v-717l162-23v268c144-132 348 14 348 215C569-53 355 94 215-50v49H59zm243-119c67 0 108-55 108-138 0-124-110-177-189-106v212c22 20 50 32 81 32" id="bk"/><path fill="#3a414a" d="M391-594c-56 0-102-46-102-102s46-102 102-102 102 46 102 102-46 102-102 102zM216 219c-41 0-98-8-141-20V60c64 17 99 21 131 21 79 0 104-27 104-108v-364H75v-125h397V-6c0 152-85 225-256 225" id="bl"/><path fill="#3a414a" d="M300 11C193 11 101-21 11-83l84-129c89 59 147 83 209 83 66 0 106-29 106-71 0-138-384-24-384-289 0-137 100-222 270-222 102 0 203 33 271 87l-87 125c-63-48-125-72-193-72-63 0-99 28-99 67 0 125 390 20 390 288C578-81 470 11 300 11" id="bm"/><g id="C"><use transform="matrix(0.017777777777777774,0,0,0.017777777777777774,0,0)" xlink:href="#bj"/><use transform="matrix(0.017777777777777774,0,0,0.017777777777777774,10.666666666666664,0)" xlink:href="#bk"/><use transform="matrix(0.017777777777777774,0,0,0.017777777777777774,21.33333333333333,0)" xlink:href="#bl"/><use transform="matrix(0.017777777777777774,0,0,0.017777777777777774,31.999999999999993,0)" xlink:href="#at"/><use transform="matrix(0.017777777777777774,0,0,0.017777777777777774,42.66666666666666,0)" xlink:href="#ap"/><use transform="matrix(0.017777777777777774,0,0,0.017777777777777774,53.33333333333332,0)" xlink:href="#aq"/><use transform="matrix(0.017777777777777774,0,0,0.017777777777777774,63.999999999999986,0)" xlink:href="#bm"/><use transform="matrix(0.017777777777777774,0,0,0.017777777777777774,74.66666666666666,0)" xlink:href="#ap"/><use transform="matrix(0.017777777777777774,0,0,0.017777777777777774,85.33333333333331,0)" xlink:href="#am"/><use transform="matrix(0.017777777777777774,0,0,0.017777777777777774,95.99999999999997,0)" xlink:href="#al"/><use transform="matrix(0.017777777777777774,0,0,0.017777777777777774,106.66666666666663,0)" xlink:href="#at"/></g><g id="D"><use transform="matrix(0.008888888888888884,0,0,0.008888888888888884,0,0)" xlink:href="#aE"/><use transform="matrix(0.008888888888888884,0,0,0.008888888888888884,5.33333333333333,0)" xlink:href="#aZ"/><use transform="matrix(0.008888888888888884,0,0,0.008888888888888884,10.66666666666666,0)" xlink:href="#bc"/><use transform="matrix(0.008888888888888884,0,0,0.008888888888888884,15.999999999999991,0)" xlink:href="#aJ"/><use transform="matrix(0.008888888888888884,0,0,0.008888888888888884,21.33333333333332,0)" xlink:href="#aO"/><use transform="matrix(0.008888888888888884,0,0,0.008888888888888884,26.66666666666665,0)" xlink:href="#aL"/><use transform="matrix(0.008888888888888884,0,0,0.008888888888888884,31.99999999999998,0)" xlink:href="#bd"/><use transform="matrix(0.008888888888888884,0,0,0.008888888888888884,37.3333333333333,0)" xlink:href="#aB"/></g><g id="E"><use transform="matrix(0.008888888888888884,0,0,0.008888888888888884,0,0)" xlink:href="#aI"/><use transform="matrix(0.008888888888888884,0,0,0.008888888888888884,5.33333333333333,0)" xlink:href="#aA"/><use transform="matrix(0.008888888888888884,0,0,0.008888888888888884,10.66666666666666,0)" xlink:href="#aF"/></g><g id="F"><use transform="matrix(0.008888888888888884,0,0,0.008888888888888884,0,0)" xlink:href="#aA"/><use transform="matrix(0.008888888888888884,0,0,0.008888888888888884,5.33333333333333,0)" xlink:href="#aF"/><use transform="matrix(0.008888888888888884,0,0,0.008888888888888884,10.66666666666666,0)" xlink:href="#aL"/></g><g id="G"><use transform="matrix(0.008888888888888884,0,0,0.008888888888888884,0,0)" xlink:href="#aI"/><use transform="matrix(0.008888888888888884,0,0,0.008888888888888884,5.33333333333333,0)" xlink:href="#aH"/><use transform="matrix(0.008888888888888884,0,0,0.008888888888888884,10.66666666666666,0)" xlink:href="#bf"/></g><g id="H"><use transform="matrix(0.008888888888888884,0,0,0.008888888888888884,0,0)" xlink:href="#aH"/><use transform="matrix(0.008888888888888884,0,0,0.008888888888888884,5.33333333333333,0)" xlink:href="#aX"/><use transform="matrix(0.008888888888888884,0,0,0.008888888888888884,10.66666666666666,0)" xlink:href="#aG"/></g><g id="I"><use transform="matrix(0.008888888888888884,0,0,0.008888888888888884,0,0)" xlink:href="#aO"/><use transform="matrix(0.008888888888888884,0,0,0.008888888888888884,5.33333333333333,0)" xlink:href="#aE"/><use transform="matrix(0.008888888888888884,0,0,0.008888888888888884,10.66666666666666,0)" xlink:href="#aY"/><use transform="matrix(0.008888888888888884,0,0,0.008888888888888884,15.999999999999991,0)" xlink:href="#aF"/><use transform="matrix(0.008888888888888884,0,0,0.008888888888888884,21.33333333333332,0)" xlink:href="#aL"/></g><path fill="#3a414a" d="M308 11C149 11 26-118 26-350s123-361 281-361c111 0 206 68 250 189l-146 49c-19-57-57-85-99-85-64 0-113 59-113 208s49 208 117 208c51 0 92-49 101-116H306v-144h268c13 250-90 417-266 413" id="bn"/><path fill="#3a414a" d="M74 0v-700h484v144H246v133h197v140H246v139h316V0H74" id="bo"/><path fill="#3a414a" d="M214 0v-556H14v-144h572v144H386V0H214" id="bp"/><g id="J"><use transform="matrix(0.013333333333333327,0,0,0.013333333333333327,0,0)" xlink:href="#bn"/><use transform="matrix(0.013333333333333327,0,0,0.013333333333333327,7.9999999999999964,0)" xlink:href="#bo"/><use transform="matrix(0.013333333333333327,0,0,0.013333333333333327,15.999999999999993,0)" xlink:href="#bp"/></g><path fill="#3a414a" d="M-16 209l402-909h154L139 209H-16" id="bq"/><g id="K"><use transform="matrix(0.013333333333333327,0,0,0.013333333333333327,0,0)" xlink:href="#bq"/><use transform="matrix(0.013333333333333327,0,0,0.013333333333333327,7.9999999999999964,0)" xlink:href="#ak"/><use transform="matrix(0.013333333333333327,0,0,0.013333333333333327,15.999999999999993,0)" xlink:href="#al"/><use transform="matrix(0.013333333333333327,0,0,0.013333333333333327,23.99999999999999,0)" xlink:href="#am"/><use transform="matrix(0.013333333333333327,0,0,0.013333333333333327,31.999999999999986,0)" xlink:href="#an"/><use transform="matrix(0.013333333333333327,0,0,0.013333333333333327,39.999999999999986,0)" xlink:href="#ao"/><use transform="matrix(0.013333333333333327,0,0,0.013333333333333327,47.999999999999986,0)" xlink:href="#ap"/><use transform="matrix(0.013333333333333327,0,0,0.013333333333333327,55.999999999999986,0)" xlink:href="#aq"/></g><g id="L"><use transform="matrix(0.013333333333333327,0,0,0.013333333333333327,0,0)" xlink:href="#az"/><use transform="matrix(0.013333333333333327,0,0,0.013333333333333327,7.9999999999999964,0)" xlink:href="#bj"/><use transform="matrix(0.013333333333333327,0,0,0.013333333333333327,15.999999999999993,0)" xlink:href="#bm"/><use transform="matrix(0.013333333333333327,0,0,0.013333333333333327,23.99999999999999,0)" xlink:href="#bp"/></g><g id="M"><use transform="matrix(0.013333333333333327,0,0,0.013333333333333327,0,0)" xlink:href="#bq"/><use transform="matrix(0.013333333333333327,0,0,0.013333333333333327,7.9999999999999964,0)" xlink:href="#ak"/><use transform="matrix(0.013333333333333327,0,0,0.013333333333333327,15.999999999999993,0)" xlink:href="#al"/><use transform="matrix(0.013333333333333327,0,0,0.013333333333333327,23.99999999999999,0)" xlink:href="#am"/><use transform="matrix(0.013333333333333327,0,0,0.013333333333333327,31.999999999999986,0)" xlink:href="#an"/><use transform="matrix(0.013333333333333327,0,0,0.013333333333333327,39.999999999999986,0)" xlink:href="#ao"/><use transform="matrix(0.013333333333333327,0,0,0.013333333333333327,47.999999999999986,0)" xlink:href="#ap"/><use transform="matrix(0.013333333333333327,0,0,0.013333333333333327,55.999999999999986,0)" xlink:href="#aq"/></g><g id="N"><use transform="matrix(0.013333333333333327,0,0,0.013333333333333327,0,0)" xlink:href="#bn"/><use transform="matrix(0.013333333333333327,0,0,0.013333333333333327,7.9999999999999964,0)" xlink:href="#bo"/><use transform="matrix(0.013333333333333327,0,0,0.013333333333333327,15.999999999999993,0)" xlink:href="#bp"/></g><path fill="#3a414a" d="M505 200c-130 59-327 6-320-129 0-76 68-138 68-190 2-67-78-70-151-65v-118c73 5 153 2 151-65 0-52-68-114-68-190-7-135 190-188 320-129l-29 114c-52-26-160-24-157 40 0 46 65 120 65 175 0 54-44 100-108 114 64 14 108 60 108 114 0 55-65 129-65 175-3 64 105 66 157 40" id="br"/><path fill="#3a414a" d="M95-686c130-59 327-6 320 129 0 76-68 138-68 190-2 67 78 70 151 65v118c-73-5-153-2-151 65 0 52 68 114 68 190 7 135-190 188-320 129l29-114c52 26 160 24 157-40 0-46-65-120-65-175 0-54 44-100 108-114-64-14-108-60-108-114 0-55 65-129 65-175 3-64-105-66-157-40" id="bs"/><g id="O"><use transform="matrix(0.013333333333333327,0,0,0.013333333333333327,0,0)" xlink:href="#bq"/><use transform="matrix(0.013333333333333327,0,0,0.013333333333333327,7.9999999999999964,0)" xlink:href="#ak"/><use transform="matrix(0.013333333333333327,0,0,0.013333333333333327,15.999999999999993,0)" xlink:href="#al"/><use transform="matrix(0.013333333333333327,0,0,0.013333333333333327,23.99999999999999,0)" xlink:href="#am"/><use transform="matrix(0.013333333333333327,0,0,0.013333333333333327,31.999999999999986,0)" xlink:href="#an"/><use transform="matrix(0.013333333333333327,0,0,0.013333333333333327,39.999999999999986,0)" xlink:href="#ao"/><use transform="matrix(0.013333333333333327,0,0,0.013333333333333327,47.999999999999986,0)" xlink:href="#ap"/><use transform="matrix(0.013333333333333327,0,0,0.013333333333333327,55.999999999999986,0)" xlink:href="#aq"/><use transform="matrix(0.013333333333333327,0,0,0.013333333333333327,63.999999999999986,0)" xlink:href="#bq"/><use transform="matrix(0.013333333333333327,0,0,0.013333333333333327,71.99999999999999,0)" xlink:href="#br"/><use transform="matrix(0.013333333333333327,0,0,0.013333333333333327,79.99999999999999,0)" xlink:href="#av"/><use transform="matrix(0.013333333333333327,0,0,0.013333333333333327,87.99999999999999,0)" xlink:href="#an"/><use transform="matrix(0.013333333333333327,0,0,0.013333333333333327,95.99999999999999,0)" xlink:href="#bs"/></g><path fill="#3a414a" d="M300 11C143 11 42-90 42-247v-453h172v453c0 63 33 104 86 104s86-41 86-104v-453h172v453C558-90 457 11 300 11" id="bt"/><g id="P"><use transform="matrix(0.013333333333333327,0,0,0.013333333333333327,0,0)" xlink:href="#az"/><use transform="matrix(0.013333333333333327,0,0,0.013333333333333327,7.9999999999999964,0)" xlink:href="#bt"/><use transform="matrix(0.013333333333333327,0,0,0.013333333333333327,15.999999999999993,0)" xlink:href="#bp"/></g><path fill="#3a414a" d="M74 0v-700h172v556h316V0H74" id="bu"/><g id="Q"><use transform="matrix(0.013333333333333327,0,0,0.013333333333333327,0,0)" xlink:href="#aV"/><use transform="matrix(0.013333333333333327,0,0,0.013333333333333327,7.9999999999999964,0)" xlink:href="#bo"/><use transform="matrix(0.013333333333333327,0,0,0.013333333333333327,15.999999999999993,0)" xlink:href="#bu"/><use transform="matrix(0.013333333333333327,0,0,0.013333333333333327,23.99999999999999,0)" xlink:href="#bo"/><use transform="matrix(0.013333333333333327,0,0,0.013333333333333327,31.999999999999986,0)" xlink:href="#bp"/><use transform="matrix(0.013333333333333327,0,0,0.013333333333333327,39.999999999999986,0)" xlink:href="#bo"/></g><g id="R"><use transform="matrix(0.013333333333333327,0,0,0.013333333333333327,0,0)" xlink:href="#bq"/><use transform="matrix(0.013333333333333327,0,0,0.013333333333333327,7.9999999999999964,0)" xlink:href="#ak"/><use transform="matrix(0.013333333333333327,0,0,0.013333333333333327,15.999999999999993,0)" xlink:href="#al"/><use transform="matrix(0.013333333333333327,0,0,0.013333333333333327,23.99999999999999,0)" xlink:href="#am"/><use transform="matrix(0.013333333333333327,0,0,0.013333333333333327,31.999999999999986,0)" xlink:href="#an"/><use transform="matrix(0.013333333333333327,0,0,0.013333333333333327,39.999999999999986,0)" xlink:href="#ao"/><use transform="matrix(0.013333333333333327,0,0,0.013333333333333327,47.999999999999986,0)" xlink:href="#ap"/><use transform="matrix(0.013333333333333327,0,0,0.013333333333333327,55.999999999999986,0)" xlink:href="#aq"/><use transform="matrix(0.013333333333333327,0,0,0.013333333333333327,63.999999999999986,0)" xlink:href="#bq"/><use transform="matrix(0.013333333333333327,0,0,0.013333333333333327,71.99999999999999,0)" xlink:href="#br"/><use transform="matrix(0.013333333333333327,0,0,0.013333333333333327,79.99999999999999,0)" xlink:href="#av"/><use transform="matrix(0.013333333333333327,0,0,0.013333333333333327,87.99999999999999,0)" xlink:href="#an"/><use transform="matrix(0.013333333333333327,0,0,0.013333333333333327,95.99999999999999,0)" xlink:href="#bs"/></g><g id="S"><use transform="matrix(0.013333333333333329,0,0,0.013333333333333329,0,0)" xlink:href="#bn"/><use transform="matrix(0.013333333333333329,0,0,0.013333333333333329,7.999999999999997,0)" xlink:href="#bo"/><use transform="matrix(0.013333333333333329,0,0,0.013333333333333329,15.999999999999995,0)" xlink:href="#bp"/></g><g id="T"><use transform="matrix(0.013333333333333329,0,0,0.013333333333333329,0,0)" xlink:href="#bq"/><use transform="matrix(0.013333333333333329,0,0,0.013333333333333329,7.999999999999997,0)" xlink:href="#al"/><use transform="matrix(0.013333333333333329,0,0,0.013333333333333329,15.999999999999995,0)" xlink:href="#at"/><use transform="matrix(0.013333333333333329,0,0,0.013333333333333329,23.999999999999993,0)" xlink:href="#au"/><use transform="matrix(0.013333333333333329,0,0,0.013333333333333329,31.99999999999999,0)" xlink:href="#av"/><use transform="matrix(0.013333333333333329,0,0,0.013333333333333329,39.999999999999986,0)" xlink:href="#at"/><use transform="matrix(0.013333333333333329,0,0,0.013333333333333329,47.999999999999986,0)" xlink:href="#aQ"/><use transform="matrix(0.013333333333333329,0,0,0.013333333333333329,55.99999999999998,0)" xlink:href="#bq"/><use transform="matrix(0.013333333333333329,0,0,0.013333333333333329,63.99999999999999,0)" xlink:href="#br"/><use transform="matrix(0.013333333333333329,0,0,0.013333333333333329,71.99999999999999,0)" xlink:href="#av"/><use transform="matrix(0.013333333333333329,0,0,0.013333333333333329,79.99999999999999,0)" xlink:href="#an"/><use transform="matrix(0.013333333333333329,0,0,0.013333333333333329,87.99999999999999,0)" xlink:href="#bs"/></g><path fill="#3a414a" d="M44 0v-144h170v-412H44v-144h512v144H386v412h170V0H44" id="bv"/><g id="U"><use transform="matrix(0.013333333333333329,0,0,0.013333333333333329,0,0)" xlink:href="#bq"/><use transform="matrix(0.013333333333333329,0,0,0.013333333333333329,7.999999999999997,0)" xlink:href="#al"/><use transform="matrix(0.013333333333333329,0,0,0.013333333333333329,15.999999999999995,0)" xlink:href="#at"/><use transform="matrix(0.013333333333333329,0,0,0.013333333333333329,23.999999999999993,0)" xlink:href="#au"/><use transform="matrix(0.013333333333333329,0,0,0.013333333333333329,31.99999999999999,0)" xlink:href="#av"/><use transform="matrix(0.013333333333333329,0,0,0.013333333333333329,39.999999999999986,0)" xlink:href="#at"/><use transform="matrix(0.013333333333333329,0,0,0.013333333333333329,47.999999999999986,0)" xlink:href="#aQ"/><use transform="matrix(0.013333333333333329,0,0,0.013333333333333329,55.99999999999998,0)" xlink:href="#bq"/><use transform="matrix(0.013333333333333329,0,0,0.013333333333333329,63.99999999999999,0)" xlink:href="#am"/><use transform="matrix(0.013333333333333329,0,0,0.013333333333333329,71.99999999999999,0)" xlink:href="#bk"/><use transform="matrix(0.013333333333333329,0,0,0.013333333333333329,79.99999999999999,0)" xlink:href="#bl"/><use transform="matrix(0.013333333333333329,0,0,0.013333333333333329,87.99999999999999,0)" xlink:href="#at"/><use transform="matrix(0.013333333333333329,0,0,0.013333333333333329,95.99999999999999,0)" xlink:href="#ap"/><use transform="matrix(0.013333333333333329,0,0,0.013333333333333329,103.99999999999999,0)" xlink:href="#aq"/><use transform="matrix(0.013333333333333329,0,0,0.013333333333333329,111.99999999999999,0)" xlink:href="#bq"/><use transform="matrix(0.013333333333333329,0,0,0.013333333333333329,119.99999999999999,0)" xlink:href="#br"/><use transform="matrix(0.013333333333333329,0,0,0.013333333333333329,127.99999999999999,0)" xlink:href="#am"/><use transform="matrix(0.013333333333333329,0,0,0.013333333333333329,135.99999999999997,0)" xlink:href="#bk"/><use transform="matrix(0.013333333333333329,0,0,0.013333333333333329,143.99999999999997,0)" xlink:href="#bl"/><use transform="matrix(0.013333333333333329,0,0,0.013333333333333329,151.99999999999997,0)" xlink:href="#at"/><use transform="matrix(0.013333333333333329,0,0,0.013333333333333329,159.99999999999997,0)" xlink:href="#ap"/><use transform="matrix(0.013333333333333329,0,0,0.013333333333333329,167.99999999999997,0)" xlink:href="#aq"/><use transform="matrix(0.013333333333333329,0,0,0.013333333333333329,175.99999999999997,0)" xlink:href="#bv"/><use transform="matrix(0.013333333333333329,0,0,0.013333333333333329,183.99999999999997,0)" xlink:href="#an"/><use transform="matrix(0.013333333333333329,0,0,0.013333333333333329,191.99999999999997,0)" xlink:href="#bs"/></g><g id="V"><use transform="matrix(0.013333333333333329,0,0,0.013333333333333329,0,0)" xlink:href="#az"/><use transform="matrix(0.013333333333333329,0,0,0.013333333333333329,7.999999999999997,0)" xlink:href="#bj"/><use transform="matrix(0.013333333333333329,0,0,0.013333333333333329,15.999999999999995,0)" xlink:href="#bm"/><use transform="matrix(0.013333333333333329,0,0,0.013333333333333329,23.999999999999993,0)" xlink:href="#bp"/></g><g id="W"><use transform="matrix(0.013333333333333329,0,0,0.013333333333333329,0,0)" xlink:href="#bq"/><use transform="matrix(0.013333333333333329,0,0,0.013333333333333329,7.999999999999997,0)" xlink:href="#al"/><use transform="matrix(0.013333333333333329,0,0,0.013333333333333329,15.999999999999995,0)" xlink:href="#at"/><use transform="matrix(0.013333333333333329,0,0,0.013333333333333329,23.999999999999993,0)" xlink:href="#au"/><use transform="matrix(0.013333333333333329,0,0,0.013333333333333329,31.99999999999999,0)" xlink:href="#av"/><use transform="matrix(0.013333333333333329,0,0,0.013333333333333329,39.999999999999986,0)" xlink:href="#at"/><use transform="matrix(0.013333333333333329,0,0,0.013333333333333329,47.999999999999986,0)" xlink:href="#aQ"/><use transform="matrix(0.013333333333333329,0,0,0.013333333333333329,55.99999999999998,0)" xlink:href="#bq"/><use transform="matrix(0.013333333333333329,0,0,0.013333333333333329,63.99999999999999,0)" xlink:href="#am"/><use transform="matrix(0.013333333333333329,0,0,0.013333333333333329,71.99999999999999,0)" xlink:href="#bk"/><use transform="matrix(0.013333333333333329,0,0,0.013333333333333329,79.99999999999999,0)" xlink:href="#bl"/><use transform="matrix(0.013333333333333329,0,0,0.013333333333333329,87.99999999999999,0)" xlink:href="#at"/><use transform="matrix(0.013333333333333329,0,0,0.013333333333333329,95.99999999999999,0)" xlink:href="#ap"/><use transform="matrix(0.013333333333333329,0,0,0.013333333333333329,103.99999999999999,0)" xlink:href="#aq"/><use transform="matrix(0.013333333333333329,0,0,0.013333333333333329,111.99999999999999,0)" xlink:href="#bq"/><use transform="matrix(0.013333333333333329,0,0,0.013333333333333329,119.99999999999999,0)" xlink:href="#br"/><use transform="matrix(0.013333333333333329,0,0,0.013333333333333329,127.99999999999999,0)" xlink:href="#am"/><use transform="matrix(0.013333333333333329,0,0,0.013333333333333329,135.99999999999997,0)" xlink:href="#bk"/><use transform="matrix(0.013333333333333329,0,0,0.013333333333333329,143.99999999999997,0)" xlink:href="#bl"/><use transform="matrix(0.013333333333333329,0,0,0.013333333333333329,151.99999999999997,0)" xlink:href="#at"/><use transform="matrix(0.013333333333333329,0,0,0.013333333333333329,159.99999999999997,0)" xlink:href="#ap"/><use transform="matrix(0.013333333333333329,0,0,0.013333333333333329,167.99999999999997,0)" xlink:href="#aq"/><use transform="matrix(0.013333333333333329,0,0,0.013333333333333329,175.99999999999997,0)" xlink:href="#bv"/><use transform="matrix(0.013333333333333329,0,0,0.013333333333333329,183.99999999999997,0)" xlink:href="#an"/><use transform="matrix(0.013333333333333329,0,0,0.013333333333333329,191.99999999999997,0)" xlink:href="#bs"/></g><g id="X"><use transform="matrix(0.013333333333333329,0,0,0.013333333333333329,0,0)" xlink:href="#az"/><use transform="matrix(0.013333333333333329,0,0,0.013333333333333329,7.999999999999997,0)" xlink:href="#bt"/><use transform="matrix(0.013333333333333329,0,0,0.013333333333333329,15.999999999999995,0)" xlink:href="#bp"/></g><g id="Y"><use transform="matrix(0.013333333333333329,0,0,0.013333333333333329,0,0)" xlink:href="#bq"/><use transform="matrix(0.013333333333333329,0,0,0.013333333333333329,7.999999999999997,0)" xlink:href="#al"/><use transform="matrix(0.013333333333333329,0,0,0.013333333333333329,15.999999999999995,0)" xlink:href="#at"/><use transform="matrix(0.013333333333333329,0,0,0.013333333333333329,23.999999999999993,0)" xlink:href="#au"/><use transform="matrix(0.013333333333333329,0,0,0.013333333333333329,31.99999999999999,0)" xlink:href="#av"/><use transform="matrix(0.013333333333333329,0,0,0.013333333333333329,39.999999999999986,0)" xlink:href="#at"/><use transform="matrix(0.013333333333333329,0,0,0.013333333333333329,47.999999999999986,0)" xlink:href="#aQ"/><use transform="matrix(0.013333333333333329,0,0,0.013333333333333329,55.99999999999998,0)" xlink:href="#bq"/><use transform="matrix(0.013333333333333329,0,0,0.013333333333333329,63.99999999999999,0)" xlink:href="#br"/><use transform="matrix(0.013333333333333329,0,0,0.013333333333333329,71.99999999999999,0)" xlink:href="#av"/><use transform="matrix(0.013333333333333329,0,0,0.013333333333333329,79.99999999999999,0)" xlink:href="#an"/><use transform="matrix(0.013333333333333329,0,0,0.013333333333333329,87.99999999999999,0)" xlink:href="#bs"/></g><g id="Z"><use transform="matrix(0.013333333333333329,0,0,0.013333333333333329,0,0)" xlink:href="#aV"/><use transform="matrix(0.013333333333333329,0,0,0.013333333333333329,7.999999999999997,0)" xlink:href="#bo"/><use transform="matrix(0.013333333333333329,0,0,0.013333333333333329,15.999999999999995,0)" xlink:href="#bu"/><use transform="matrix(0.013333333333333329,0,0,0.013333333333333329,23.999999999999993,0)" xlink:href="#bo"/><use transform="matrix(0.013333333333333329,0,0,0.013333333333333329,31.99999999999999,0)" xlink:href="#bp"/><use transform="matrix(0.013333333333333329,0,0,0.013333333333333329,39.999999999999986,0)" xlink:href="#bo"/></g><g id="aa"><use transform="matrix(0.013333333333333329,0,0,0.013333333333333329,0,0)" xlink:href="#bq"/><use transform="matrix(0.013333333333333329,0,0,0.013333333333333329,7.999999999999997,0)" xlink:href="#al"/><use transform="matrix(0.013333333333333329,0,0,0.013333333333333329,15.999999999999995,0)" xlink:href="#at"/><use transform="matrix(0.013333333333333329,0,0,0.013333333333333329,23.999999999999993,0)" xlink:href="#au"/><use transform="matrix(0.013333333333333329,0,0,0.013333333333333329,31.99999999999999,0)" xlink:href="#av"/><use transform="matrix(0.013333333333333329,0,0,0.013333333333333329,39.999999999999986,0)" xlink:href="#at"/><use transform="matrix(0.013333333333333329,0,0,0.013333333333333329,47.999999999999986,0)" xlink:href="#aQ"/><use transform="matrix(0.013333333333333329,0,0,0.013333333333333329,55.99999999999998,0)" xlink:href="#bq"/><use transform="matrix(0.013333333333333329,0,0,0.013333333333333329,63.99999999999999,0)" xlink:href="#br"/><use transform="matrix(0.013333333333333329,0,0,0.013333333333333329,71.99999999999999,0)" xlink:href="#av"/><use transform="matrix(0.013333333333333329,0,0,0.013333333333333329,79.99999999999999,0)" xlink:href="#an"/><use transform="matrix(0.013333333333333329,0,0,0.013333333333333329,87.99999999999999,0)" xlink:href="#bs"/></g><g id="ab"><use transform="matrix(0.013333333333333329,0,0,0.013333333333333329,0,0)" xlink:href="#aV"/><use transform="matrix(0.013333333333333329,0,0,0.013333333333333329,7.999999999999997,0)" xlink:href="#bo"/><use transform="matrix(0.013333333333333329,0,0,0.013333333333333329,15.999999999999995,0)" xlink:href="#bu"/><use transform="matrix(0.013333333333333329,0,0,0.013333333333333329,23.999999999999993,0)" xlink:href="#bo"/><use transform="matrix(0.013333333333333329,0,0,0.013333333333333329,31.99999999999999,0)" xlink:href="#bp"/><use transform="matrix(0.013333333333333329,0,0,0.013333333333333329,39.999999999999986,0)" xlink:href="#bo"/></g><g id="ac"><use transform="matrix(0.013333333333333329,0,0,0.013333333333333329,0,0)" xlink:href="#bq"/><use transform="matrix(0.013333333333333329,0,0,0.013333333333333329,7.999999999999997,0)" xlink:href="#al"/><use transform="matrix(0.013333333333333329,0,0,0.013333333333333329,15.999999999999995,0)" xlink:href="#at"/><use transform="matrix(0.013333333333333329,0,0,0.013333333333333329,23.999999999999993,0)" xlink:href="#au"/><use transform="matrix(0.013333333333333329,0,0,0.013333333333333329,31.99999999999999,0)" xlink:href="#av"/><use transform="matrix(0.013333333333333329,0,0,0.013333333333333329,39.999999999999986,0)" xlink:href="#at"/><use transform="matrix(0.013333333333333329,0,0,0.013333333333333329,47.999999999999986,0)" xlink:href="#aQ"/><use transform="matrix(0.013333333333333329,0,0,0.013333333333333329,55.99999999999998,0)" xlink:href="#bq"/><use transform="matrix(0.013333333333333329,0,0,0.013333333333333329,63.99999999999999,0)" xlink:href="#am"/><use transform="matrix(0.013333333333333329,0,0,0.013333333333333329,71.99999999999999,0)" xlink:href="#bk"/><use transform="matrix(0.013333333333333329,0,0,0.013333333333333329,79.99999999999999,0)" xlink:href="#bl"/><use transform="matrix(0.013333333333333329,0,0,0.013333333333333329,87.99999999999999,0)" xlink:href="#at"/><use transform="matrix(0.013333333333333329,0,0,0.013333333333333329,95.99999999999999,0)" xlink:href="#ap"/><use transform="matrix(0.013333333333333329,0,0,0.013333333333333329,103.99999999999999,0)" xlink:href="#aq"/><use transform="matrix(0.013333333333333329,0,0,0.013333333333333329,111.99999999999999,0)" xlink:href="#bq"/><use transform="matrix(0.013333333333333329,0,0,0.013333333333333329,119.99999999999999,0)" xlink:href="#br"/><use transform="matrix(0.013333333333333329,0,0,0.013333333333333329,127.99999999999999,0)" xlink:href="#am"/><use transform="matrix(0.013333333333333329,0,0,0.013333333333333329,135.99999999999997,0)" xlink:href="#bk"/><use transform="matrix(0.013333333333333329,0,0,0.013333333333333329,143.99999999999997,0)" xlink:href="#bl"/><use transform="matrix(0.013333333333333329,0,0,0.013333333333333329,151.99999999999997,0)" xlink:href="#at"/><use transform="matrix(0.013333333333333329,0,0,0.013333333333333329,159.99999999999997,0)" xlink:href="#ap"/><use transform="matrix(0.013333333333333329,0,0,0.013333333333333329,167.99999999999997,0)" xlink:href="#aq"/><use transform="matrix(0.013333333333333329,0,0,0.013333333333333329,175.99999999999997,0)" xlink:href="#bv"/><use transform="matrix(0.013333333333333329,0,0,0.013333333333333329,183.99999999999997,0)" xlink:href="#an"/><use transform="matrix(0.013333333333333329,0,0,0.013333333333333329,191.99999999999997,0)" xlink:href="#bs"/></g><g id="ad"><use transform="matrix(0.013333333333333329,0,0,0.013333333333333329,0,0)" xlink:href="#bq"/><use transform="matrix(0.013333333333333329,0,0,0.013333333333333329,7.999999999999997,0)" xlink:href="#al"/><use transform="matrix(0.013333333333333329,0,0,0.013333333333333329,15.999999999999995,0)" xlink:href="#aS"/><use transform="matrix(0.013333333333333329,0,0,0.013333333333333329,23.999999999999993,0)" xlink:href="#aq"/><use transform="matrix(0.013333333333333329,0,0,0.013333333333333329,31.99999999999999,0)" xlink:href="#av"/><use transform="matrix(0.013333333333333329,0,0,0.013333333333333329,39.999999999999986,0)" xlink:href="#bi"/><use transform="matrix(0.013333333333333329,0,0,0.013333333333333329,47.999999999999986,0)" xlink:href="#aw"/><use transform="matrix(0.013333333333333329,0,0,0.013333333333333329,55.99999999999998,0)" xlink:href="#bq"/><use transform="matrix(0.013333333333333329,0,0,0.013333333333333329,63.99999999999999,0)" xlink:href="#br"/><use transform="matrix(0.013333333333333329,0,0,0.013333333333333329,71.99999999999999,0)" xlink:href="#am"/><use transform="matrix(0.013333333333333329,0,0,0.013333333333333329,79.99999999999999,0)" xlink:href="#bk"/><use transform="matrix(0.013333333333333329,0,0,0.013333333333333329,87.99999999999999,0)" xlink:href="#bl"/><use transform="matrix(0.013333333333333329,0,0,0.013333333333333329,95.99999999999999,0)" xlink:href="#at"/><use transform="matrix(0.013333333333333329,0,0,0.013333333333333329,103.99999999999999,0)" xlink:href="#ap"/><use transform="matrix(0.013333333333333329,0,0,0.013333333333333329,111.99999999999999,0)" xlink:href="#aq"/><use transform="matrix(0.013333333333333329,0,0,0.013333333333333329,119.99999999999999,0)" xlink:href="#bv"/><use transform="matrix(0.013333333333333329,0,0,0.013333333333333329,127.99999999999999,0)" xlink:href="#an"/><use transform="matrix(0.013333333333333329,0,0,0.013333333333333329,135.99999999999997,0)" xlink:href="#bs"/></g><g id="ae"><use transform="matrix(0.01555555555555555,0,0,0.01555555555555555,0,0)" xlink:href="#bm"/><use transform="matrix(0.01555555555555555,0,0,0.01555555555555555,9.33333333333333,0)" xlink:href="#ap"/><use transform="matrix(0.01555555555555555,0,0,0.01555555555555555,18.66666666666666,0)" xlink:href="#am"/><use transform="matrix(0.01555555555555555,0,0,0.01555555555555555,27.999999999999993,0)" xlink:href="#al"/><use transform="matrix(0.01555555555555555,0,0,0.01555555555555555,37.33333333333332,0)" xlink:href="#at"/><use transform="matrix(0.01555555555555555,0,0,0.01555555555555555,46.66666666666665,0)" xlink:href="#bo"/><use transform="matrix(0.01555555555555555,0,0,0.01555555555555555,55.99999999999998,0)" xlink:href="#au"/><use transform="matrix(0.01555555555555555,0,0,0.01555555555555555,65.33333333333331,0)" xlink:href="#at"/><use transform="matrix(0.01555555555555555,0,0,0.01555555555555555,74.66666666666664,0)" xlink:href="#bi"/><use transform="matrix(0.01555555555555555,0,0,0.01555555555555555,83.99999999999997,0)" xlink:href="#aq"/></g><g id="af"><use transform="matrix(0.013333333333333329,0,0,0.013333333333333329,0,0)" xlink:href="#aE"/><use transform="matrix(0.013333333333333329,0,0,0.013333333333333329,7.999999999999997,0)" xlink:href="#aZ"/><use transform="matrix(0.013333333333333329,0,0,0.013333333333333329,15.999999999999995,0)" xlink:href="#bc"/><use transform="matrix(0.013333333333333329,0,0,0.013333333333333329,23.999999999999993,0)" xlink:href="#aJ"/><use transform="matrix(0.013333333333333329,0,0,0.013333333333333329,31.99999999999999,0)" xlink:href="#aO"/><use transform="matrix(0.013333333333333329,0,0,0.013333333333333329,39.999999999999986,0)" xlink:href="#aL"/><use transform="matrix(0.013333333333333329,0,0,0.013333333333333329,47.999999999999986,0)" xlink:href="#bd"/><use transform="matrix(0.013333333333333329,0,0,0.013333333333333329,55.99999999999998,0)" xlink:href="#aB"/></g><use transform="matrix(0.013333333333333329,0,0,0.013333333333333329,0,0)" xlink:href="#aC" id="ag"/><g id="ah"><use transform="matrix(0.013333333333333329,0,0,0.013333333333333329,0,0)" xlink:href="#aD"/><use transform="matrix(0.013333333333333329,0,0,0.013333333333333329,7.999999999999997,0)" xlink:href="#aE"/><use transform="matrix(0.013333333333333329,0,0,0.013333333333333329,15.999999999999995,0)" xlink:href="#aF"/><use transform="matrix(0.013333333333333329,0,0,0.013333333333333329,23.999999999999993,0)" xlink:href="#aG"/></g><g id="ai"><use transform="matrix(0.013333333333333329,0,0,0.013333333333333329,0,0)" xlink:href="#aN"/><use transform="matrix(0.013333333333333329,0,0,0.013333333333333329,7.999999999999997,0)" xlink:href="#aO"/><use transform="matrix(0.013333333333333329,0,0,0.013333333333333329,15.999999999999995,0)" xlink:href="#aE"/><use transform="matrix(0.013333333333333329,0,0,0.013333333333333329,23.999999999999993,0)" xlink:href="#aM"/><use transform="matrix(0.013333333333333329,0,0,0.013333333333333329,31.99999999999999,0)" xlink:href="#aJ"/></g><g id="aj"><use transform="matrix(0.013333333333333329,0,0,0.013333333333333329,0,0)" xlink:href="#aA"/><use transform="matrix(0.013333333333333329,0,0,0.013333333333333329,7.999999999999997,0)" xlink:href="#aF"/><use transform="matrix(0.013333333333333329,0,0,0.013333333333333329,15.999999999999995,0)" xlink:href="#aL"/></g></defs></g></svg>